<svg id="Flat" height="512" viewBox="0 0 512 512" width="512" xmlns="http://www.w3.org/2000/svg"><circle cx="256" cy="256" fill="#ccdce5" r="232"/><path d="m96 208-10.408-26.021a33.524 33.524 0 0 1 1.141-27.445 33.529 33.529 0 0 1 29.988-18.534h3.279l4.548-9.095a33.527 33.527 0 0 1 36.563-17.883l14.889 2.978 24 56-32 24-48 16z" fill="#ea732d"/><g fill="#faac2b"><path d="m136 368h16v80h-16z" transform="matrix(.8 -.6 .6 .8 -216 168)"/><path d="m160 344h16v80h-16z" transform="matrix(.8 -.6 .6 .8 -196.8 177.6)"/><path d="m167.8 332h80.399v16h-80.399z" transform="matrix(.995 -.099 .099 .995 -32.793 22.38)"/><path d="m175.8 356h80.399v16h-80.399z" transform="matrix(.995 -.099 .099 .995 -35.141 23.295)"/><path d="m111.834 388h96.333v16h-96.333z" transform="matrix(.997 -.083 .083 .997 -32.343 14.66)"/><path d="m220 319.778h16v72.443h-16z" transform="matrix(.994 -.11 .11 .994 -37.919 27.356)"/><path d="m178.388 416h51.225v16h-51.225z" transform="matrix(.781 -.625 .625 .781 -220.166 220.345)"/></g><path d="m360 368a23.927 23.927 0 0 0 -22.575 16.144c-.481-.029-.937-.144-1.425-.144s-.944.115-1.425.144a23.794 23.794 0 0 0 -40.95-7.412 23.768 23.768 0 0 0 -29.625 23.268 24 24 0 1 0 20 37.237 23.91 23.91 0 0 0 43.076-6.994 23.788 23.788 0 0 0 31.5-14.387c.481.029.937.144 1.425.144a24 24 0 0 0 0-48z" fill="#2b9947"/><path d="m272 336h16v16h-16z" fill="#88bf40"/><path d="m360 120h16v16h-16z" fill="#88bf40"/><path d="m336 104a24 24 0 0 0 -24-24c-.488 0-.944.115-1.425.144a23.681 23.681 0 0 0 -34.338-12.944 23.923 23.923 0 0 0 -40.237-.437 23.91 23.91 0 0 0 -43.076 6.994 23.911 23.911 0 0 0 -26.695 38.243 23.8 23.8 0 0 0 11.528 39.076 23.932 23.932 0 0 0 39.795 25.19 23.917 23.917 0 0 0 42.448 4.971 23.936 23.936 0 0 0 41.468-23.769 23.756 23.756 0 0 0 10.532 2.532 23.906 23.906 0 0 0 17.771-40 23.817 23.817 0 0 0 6.229-16z" fill="#a3783b"/><path d="m200 88h16v16h-16z" fill="#80582e"/><path d="m264 144h16v16h-16z" fill="#80582e"/><path d="m280 96h16v16h-16z" fill="#80582e"/><path d="m240 112h16v16h-16z" fill="#80582e"/><path d="m208 136h16v16h-16z" fill="#80582e"/><circle cx="216" cy="256" fill="#7ca540" r="40"/><path d="m235.578 255.155-7.156-14.31-12.422 6.211-12.422-6.211-7.156 14.31 11.578 5.789v11.056h16v-11.056z" fill="#88b340"/><circle cx="160" cy="208" fill="#c5da5d" r="40"/><path d="m179.578 207.155-7.156-14.31-12.422 6.211-12.422-6.211-7.156 14.31 11.578 5.789v11.056h16v-11.056z" fill="#88bf40"/><circle cx="96" cy="232" fill="#7ca540" r="40"/><path d="m115.578 231.155-7.156-14.31-12.422 6.211-12.422-6.211-7.156 14.31 11.578 5.789v11.056h16v-11.056z" fill="#88b340"/><circle cx="104" cy="304" fill="#c5da5d" r="40"/><path d="m123.578 303.155-7.156-14.31-12.422 6.211-12.422-6.211-7.156 14.31 11.578 5.789v11.056h16v-11.056z" fill="#88bf40"/><circle cx="152" cy="280" fill="#88bf40" r="40"/><path d="m171.578 279.155-7.156-14.31-12.422 6.211-12.422-6.211-7.156 14.31 11.578 5.789v11.056h16v-11.056z" fill="#7ca540"/><path d="m456 256a57.954 57.954 0 0 0 -19.248-43.279c.153-1.576.465-3.1.465-4.721 0-26.51-21.023-48-46.956-48a46.063 46.063 0 0 0 -31.375 12.517 45.619 45.619 0 0 0 -15.586-2.917 46.406 46.406 0 0 0 -37.369 19.221c-.067 0-.129-.021-.2-.021-22.444 0-41.148 16.121-45.793 37.636a48.186 48.186 0 0 0 -19.938 39.164c0 26.51 21.023 48 46.957 48a45.589 45.589 0 0 0 7.161-.738 56.124 56.124 0 0 0 49.182 29.538 55.17 55.17 0 0 0 16.157-2.432 46 46 0 0 0 30.804 12.032c25.933 0 46.956-21.49 46.956-48 0-1.617-.312-3.145-.465-4.721a57.954 57.954 0 0 0 19.248-43.279z" fill="#e9f0f1"/><path d="m382.394 278.859a32 32 0 1 1 9.606-22.859 31.9 31.9 0 0 1 -9.606 22.859" fill="#ffc119"/></svg>