<svg height="512" viewBox="0 0 64 64" width="512" xmlns="http://www.w3.org/2000/svg"><g id="Filled_outline" data-name="Filled outline"><path d="m27 17-8.446-8.446a3.009 3.009 0 1 0 -4.237-1.237 2.961 2.961 0 0 0 -1.317-.317 3 3 0 1 0 2.554 4.554l8.446 8.446z" fill="#f4f4e6"/><path d="m40 13 4.446-4.446a3.009 3.009 0 1 1 4.237-1.237 2.961 2.961 0 0 1 1.317-.317 3 3 0 1 1 -2.554 4.554l-4.446 4.446z" fill="#f4f4e6"/><path d="m47 61h-30l-4-34h38z" fill="#e1462b"/><path d="m28 56h2v2h-2z" fill="#fcf05a"/><path d="m48.647 47 1.882-16h-37.058l1.882 16z" fill="#f98c96"/><g fill="#f4f4e6"><path d="m25 47h-5l-2-16h5z"/><path d="m39 47h5l2-16h-5z"/><path d="m30 47h4l2-16h-8z"/></g><path d="m44.185 20.009a6 6 0 1 0 -11.114-3.888 5.028 5.028 0 0 0 -1.071-.121 4.949 4.949 0 0 0 -3 1.025 4.986 4.986 0 0 0 -9 2.975 7 7 0 0 0 -7 7h38a7 7 0 0 0 -6.815-6.991z" fill="#d3843d"/><path d="m38 14h2v2h-2z" fill="#f9bb4b"/><path d="m20.99 49.858-1.98.284 1 7a1 1 0 0 0 .99.858h5v-2h-4.133z"/><path d="m28 56h2v2h-2z"/><path d="m35 19a2.994 2.994 0 0 0 -2.979 2.8 2.989 2.989 0 0 0 -5.021 2.2h2a1 1 0 0 1 2 0h2a2.981 2.981 0 0 0 -.78-2h1.78a1 1 0 0 1 2 0h2a3 3 0 0 0 -3-3z"/><path d="m38 14h2v2h-2z"/><path d="m50 14a4 4 0 0 0 0-8 4 4 0 0 0 -8 0 3.937 3.937 0 0 0 .976 2.61l-1.757 1.757a6.939 6.939 0 0 0 -2.219-.367 7.042 7.042 0 0 0 -6.7 5.008 5.832 5.832 0 0 0 -3.113.71 5.9 5.9 0 0 0 -3.748-1.7l-5.415-5.408a3.937 3.937 0 0 0 .976-2.61 4 4 0 0 0 -8 0 4 4 0 0 0 0 8 3.937 3.937 0 0 0 2.61-.976l4.122 4.122a5.935 5.935 0 0 0 -.657 1.907 8.012 8.012 0 0 0 -7.075 7.947c0 .021.005.1.007.117l4 34a1 1 0 0 0 .993.883h30a1 1 0 0 0 .993-.883l4-34c0-.02.007-.1.007-.117a7.944 7.944 0 0 0 -6.35-7.826 6.909 6.909 0 0 0 -.017-4.393l1.757-1.757a3.937 3.937 0 0 0 2.61.976zm-33.743-3.157a.988.988 0 0 0 -.83-.285 1 1 0 0 0 -.736.479 1.954 1.954 0 0 1 -1.691.963 2 2 0 0 1 0-4 1.975 1.975 0 0 1 .873.214 1 1 0 0 0 1.341-1.341 1.975 1.975 0 0 1 -.214-.873 2 2 0 0 1 4 0 1.954 1.954 0 0 1 -.963 1.691 1 1 0 0 0 -.194 1.566l5.11 5.11a5.99 5.99 0 0 0 -1.974 1.2zm33.383 19.157h-35.28l-.235-2h35.75zm-14.507 16 1.75-14h2.984l-1.75 14zm-20.533-14h2.522l1.75 14h-2.63zm4.538 0h2.984l1.75 14h-2.989zm6.75 14-1.75-14h2.984l1.75 14zm3.25-14h5.734l-1.75 14h-2.239zm12.75 0h2.984l-1.75 14h-2.989zm5 0h2.522l-1.652 14h-2.625zm-.772 28h-28.227l-1.412-12h31.046zm3.807-34h-35.84a6.01 6.01 0 0 1 5.917-5 5.918 5.918 0 0 1 4.286 1.7l1.428-1.4a7.727 7.727 0 0 0 -4.6-2.221 3.977 3.977 0 0 1 7.086-1.457 1 1 0 0 0 1.4.2 3.807 3.807 0 0 1 3.258-.724 1 1 0 0 0 1.2-.831 5 5 0 0 1 9.942.733 4.969 4.969 0 0 1 -.438 2.021 8.169 8.169 0 0 0 -5.262 2.265l1.4 1.428a6.263 6.263 0 0 1 4.3-1.714s.1.007.159.009a5.958 5.958 0 0 1 5.759 4.991zm-5.251-13.086a7.061 7.061 0 0 0 -1.586-1.586l2.071-2.071a1 1 0 0 0 -.194-1.566 1.954 1.954 0 0 1 -.963-1.691 2 2 0 0 1 4 0 1.975 1.975 0 0 1 -.214.873 1 1 0 0 0 1.341 1.341 1.975 1.975 0 0 1 .873-.214 2 2 0 0 1 0 4 1.954 1.954 0 0 1 -1.691-.963 1 1 0 0 0 -1.566-.194z"/></g></svg>