<?xml version="1.0"?>
<svg xmlns="http://www.w3.org/2000/svg" viewBox="0 0 512 512" width="512" height="512"><g id="Fill_out_line" data-name="Fill out line"><rect x="88" y="56" width="408" height="32" style="fill:#a1764a"/><path d="M254.24463,419.318c34.66559-26.66584,44.421-13.98386,79.08656-40.6497,34.6672-26.66708,24.91183-39.34907,59.579-66.01614S437.3328,298.66708,472,272l-40-72c-34.6672,26.66708-44.42258,13.9851-79.08978,40.65218s-24.91183,39.34906-59.579,66.01614c-34.6656,26.66584-44.421,13.98386-79.08656,40.6497Z" style="fill:#7ab555"/><path d="M376,288a56,56,0,1,1-56-56A55.95264,55.95264,0,0,1,376,288Z" style="fill:#dc9265"/><path d="M136,472c0-21.20284-16-21.20284-16-42.40568s16-21.20284,16-42.40568c0-21.19993-16-21.19993-16-42.39986,0-21.20059,16-21.20059,16-42.40118,0-21.19962-16-21.19962-16-42.39923,0-21.19928,16-21.19928,16-42.39856,0-21.19674-16-21.19674-16-42.39349,0-21.19906,16-21.19906,16-42.39812,0-21.19974-16-21.19974-16-42.39948C120,69.19936,136,69.19936,136,48V44a20,20,0,0,1,20-20h0a20,20,0,0,1,20,20v4c0,21.19936-16,21.19936-16,42.39872,0,21.19974,16,21.19974,16,42.39948,0,21.19906-16,21.19906-16,42.39812,0,21.19675,16,21.19675,16,42.39349,0,21.19928-16,21.19928-16,42.39856,0,21.19961,16,21.19961,16,42.39923,0,21.20059-16,21.20059-16,42.40118,0,21.19993,16,21.19993,16,42.39986,0,21.20284-16,21.20284-16,42.40568S176,450.79716,176,472" style="fill:#f2e368"/><path d="M176,472c0-21.20284-16-21.20284-16-42.40568s16-21.20284,16-42.40568c0-21.19993-16-21.19993-16-42.39986,0-21.20059,16-21.20059,16-42.40118,0-21.19962-16-21.19962-16-42.39923,0-21.19928,16-21.19928,16-42.39856,0-21.19674-16-21.19674-16-42.39349,0-21.19906,16-21.19906,16-42.39812,0-21.19974-16-21.19974-16-42.39948C160,69.19936,176,69.19936,176,48V44a20,20,0,0,1,20-20h0a20,20,0,0,1,20,20v4c0,21.19936-16,21.19936-16,42.39872,0,21.19974,16,21.19974,16,42.39948,0,21.19906-16,21.19906-16,42.39812,0,21.19675,16,21.19675,16,42.39349,0,21.19928-16,21.19928-16,42.39856,0,21.19961,16,21.19961,16,42.39923,0,21.20059-16,21.20059-16,42.40118,0,21.19993,16,21.19993,16,42.39986,0,21.20284-16,21.20284-16,42.40568S216,450.79716,216,472" style="fill:#eacf4d"/><path d="M216,472c0-21.20284-16-21.20284-16-42.40568s16-21.20284,16-42.40568c0-21.19993-16-21.19993-16-42.39986,0-21.20059,16-21.20059,16-42.40118,0-21.19962-16-21.19962-16-42.39923,0-21.19928,16-21.19928,16-42.39856,0-21.19674-16-21.19674-16-42.39349,0-21.19906,16-21.19906,16-42.39812,0-21.19974-16-21.19974-16-42.39948C200,69.19936,216,69.19936,216,48V44a20,20,0,0,1,20-20h0a20,20,0,0,1,20,20v4c0,21.19936-16,21.19936-16,42.39872,0,21.19974,16,21.19974,16,42.39948,0,21.19906-16,21.19906-16,42.39812,0,21.19675,16,21.19675,16,42.39349,0,21.19928-16,21.19928-16,42.39856,0,21.19961,16,21.19961,16,42.39923,0,21.20059-16,21.20059-16,42.40118,0,21.19993,16,21.19993,16,42.39986,0,21.20284-16,21.20284-16,42.40568S256,450.79716,256,472" style="fill:#f2e368"/><path d="M256,472c0-21.20284-16-21.20284-16-42.40568s16-21.20284,16-42.40568c0-21.19993-16-21.19993-16-42.39986,0-21.20059,16-21.20059,16-42.40118,0-21.19962-16-21.19962-16-42.39923,0-21.19928,16-21.19928,16-42.39856,0-21.19674-16-21.19674-16-42.39349,0-21.19906,16-21.19906,16-42.39812,0-21.19974-16-21.19974-16-42.39948C240,69.19936,256,69.19936,256,48V44a20,20,0,0,1,20-20h0a20,20,0,0,1,20,20v4c0,21.19936-16,21.19936-16,42.39872,0,21.19974,16,21.19974,16,42.39948,0,21.19906-16,21.19906-16,42.39812,0,21.19675,16,21.19675,16,42.39349,0,21.19928-16,21.19928-16,42.39856,0,21.19961,16,21.19961,16,42.39923,0,21.20059-16,21.20059-16,42.40118,0,21.19993,16,21.19993,16,42.39986,0,21.20284-16,21.20284-16,42.40568S296,450.79716,296,472" style="fill:#eacf4d"/><path d="M136,248H131.225a100.41863,100.41863,0,0,1-62.731-22.00486l0,0A33.29,33.29,0,0,1,56,200v0a33.29,33.29,0,0,1,12.49389-25.99509l0,0A100.41863,100.41863,0,0,1,131.225,152H136a48,48,0,0,1,48,48V200A48,48,0,0,1,136,248Z" style="fill:#e6e6e6"/><circle cx="136" cy="200" r="16" style="fill:#fc7"/><path d="M360,144a56,56,0,1,1-56-56A55.95291,55.95291,0,0,1,360,144Z" style="fill:#dc9265"/><rect x="136" y="456" width="224" height="32" style="fill:#c7161f"/><path d="M472,312v32c0,2.51-.08008,5-.26,7.47a108.232,108.232,0,0,1-2.18994,15.91,111.82595,111.82595,0,0,1-16.52,39v.01A111.889,111.889,0,0,1,360,456H136A111.88539,111.88539,0,0,1,24.05,347.1499C24.01,346.1,24,345.05005,24,344V312Z" style="fill:#eb352f"/><rect x="88" y="24" width="408" height="32" style="fill:#bc8d5d"/><path d="M160,200a24,24,0,1,0-24,24A24.02687,24.02687,0,0,0,160,200Zm-32,0a8,8,0,1,1,8,8A8.00917,8.00917,0,0,1,128,200Z"/><path d="M496,32V16H88a7.99977,7.99977,0,0,0-8,8V88a7.99977,7.99977,0,0,0,8,8h24.35632c1.245,9.76843,5.62274,15.60083,9.25843,20.418,3.707,4.91162,6.38525,8.46045,6.38525,16.38037a20.94391,20.94391,0,0,1-2.89642,11.39844,108.84266,108.84266,0,0,0-61.60749,23.561,41.29025,41.29025,0,0,0,.00049,64.48438,108.819,108.819,0,0,0,48.86353,22.07849A44.23439,44.23439,0,0,0,112,259.98828c0,13.27979,5.33105,20.34326,9.61475,26.019C125.32178,290.919,128,294.46777,128,302.3877c0,.5559-.02277,1.08618-.04974,1.6123H24a7.99977,7.99977,0,0,0-8,8v32A120.15024,120.15024,0,0,0,128,463.72693V488a7.99977,7.99977,0,0,0,8,8H360a7.99977,7.99977,0,0,0,8-8V463.72693A120.15024,120.15024,0,0,0,480,344V312a7.99977,7.99977,0,0,0-8-8H423.1311c4.04-1.62048,7.84461-2.821,11.72632-4.043,11.58447-3.64746,23.56348-7.41846,42.02051-21.61621a7.99989,7.99989,0,0,0,2.11523-10.22607l-40-72a8.00025,8.00025,0,0,0-11.87109-2.45557c-16.21,12.46924-26.3418,15.65869-37.06885,19.03613-10.9436,3.44525-22.24267,7.00623-39.01928,19.35877a63.87475,63.87475,0,0,0-47.89673-5.79212A41.82692,41.82692,0,0,0,304,217.58984a41.30721,41.30721,0,0,0-1.06689-9.61694c.35644.00586.7091.0271,1.06689.0271A63.95885,63.95885,0,0,0,346.26416,96H496V80H290.33765a45.01867,45.01867,0,0,1,4.0476-5.98145A52.28336,52.28336,0,0,0,300.74048,64H496V48H96V32ZM241.61426,116.41748c1.06573,1.41193,2.033,2.71722,2.89081,4.04236A63.63558,63.63558,0,0,0,240,144a64.38516,64.38516,0,0,0,.37024,6.84161C236.36536,156.256,232,163.17755,232,175.19629c0,13.27881,5.33105,20.34131,9.61475,26.0166,3.707,4.91065,6.38525,8.459,6.38525,16.377,0,7.91944-2.67822,11.46827-6.38525,16.37989C237.33105,239.645,232,246.7085,232,259.98828s5.33105,20.34326,9.61426,26.019C245.32178,290.919,248,294.46777,248,302.3877c0,.5559-.02277,1.08618-.04974,1.6123H223.94641c.018-.53723.05359-1.061.05359-1.6123,0-13.27979-5.33105-20.34327-9.61475-26.019C210.67822,271.457,208,267.9082,208,259.98828c0-7.91943,2.67822-11.46826,6.38525-16.37988C218.669,237.93311,224,230.86963,224,217.58984c0-13.2788-5.33105-20.3413-9.61475-26.0166-3.707-4.91064-6.38525-8.459-6.38525-16.37695,0-7.91943,2.67822-11.46826,6.38525-16.37988C218.669,153.14111,224,146.07764,224,132.79834c0-13.27979-5.33105-20.34326-9.61475-26.019C210.67822,101.86768,208,98.31885,208,90.39893c0-7.91944,2.67822-11.46827,6.38525-16.37989A52.28892,52.28892,0,0,0,220.74042,64h21.15985c-.09631.12769-.18768.25024-.28552.37988C237.33105,70.05566,232,77.11914,232,90.39893S237.33105,110.74219,241.61426,116.41748Zm-39.99951.00049c3.707,4.91162,6.38525,8.46045,6.38525,16.38037,0,7.91895-2.67822,11.46777-6.38525,16.37939C197.33105,154.853,192,161.9165,192,175.19629c0,13.27881,5.33105,20.34131,9.61475,26.0166,3.707,4.91065,6.38525,8.459,6.38525,16.377,0,7.91944-2.67822,11.46827-6.38525,16.37989C197.33105,239.645,192,246.7085,192,259.98828s5.33105,20.34326,9.61475,26.019C205.32178,290.919,208,294.46777,208,302.3877c0,.5559-.02277,1.08618-.04974,1.6123H183.94641c.018-.53723.05359-1.061.05359-1.6123,0-13.27979-5.33105-20.34327-9.61475-26.019C170.67822,271.457,168,267.9082,168,259.98828c0-7.91943,2.67822-11.46826,6.38525-16.37939a53.06152,53.06152,0,0,0,6.27839-9.87445,55.8706,55.8706,0,0,0-6.48182-74.64649c.06861-.09094.13446-.17962.20343-.27106C178.669,153.1416,184,146.07812,184,132.79834s-5.33105-20.34326-9.61475-26.019C170.67822,101.86768,168,98.31885,168,90.39893s2.67822-11.46827,6.38525-16.38038A52.29,52.29,0,0,0,180.74023,64h21.16034c-.09637.12787-.18786.25055-.28582.38037C197.33105,70.05566,192,77.11914,192,90.39893S197.33105,110.74219,201.61475,116.418Zm-40,0c3.707,4.91162,6.38525,8.46045,6.38525,16.38037,0,7.91943-2.67822,11.46826-6.38574,16.37988-.18415.244-.3786.50611-.56757.75757a55.54366,55.54366,0,0,0-18.65411-5.56006A39.647,39.647,0,0,0,144,132.79834c0-13.27979-5.33105-20.34326-9.61475-26.019C130.67822,101.86768,128,98.31885,128,90.39893c0-7.91944,2.67822-11.46827,6.38525-16.37989A52.28892,52.28892,0,0,0,140.74042,64h21.15973c-.09644.12787-.18793.25055-.28589.38037C157.33105,70.05566,152,77.11914,152,90.39893S157.33105,110.74219,161.61475,116.418ZM64,200A25.16558,25.16558,0,0,1,73.4917,180.252,92.75083,92.75083,0,0,1,131.2251,160H136a40,40,0,0,1,0,80h-4.7749a92.75322,92.75322,0,0,1-57.73389-20.25195A25.16661,25.16661,0,0,1,64,200Zm70.38525,76.36865C130.67822,271.457,128,267.9082,128,259.98828a27.68177,27.68177,0,0,1,.28076-4.05145c.98108.027,1.96149.06317,2.94434.06317H136a55.80914,55.80914,0,0,0,16.46985-2.4751A43.46528,43.46528,0,0,0,152,259.98828c0,13.27979,5.33105,20.34326,9.61475,26.019C165.32178,290.919,168,294.46777,168,302.3877c0,.5559-.02277,1.08618-.04974,1.6123H143.94641c.018-.53723.05359-1.061.05359-1.6123C144,289.10791,138.669,282.04443,134.38525,276.36865ZM46.12561,396.27808A103.34386,103.34386,0,0,1,34.794,367.97437c.32452.0083.6438.02563.97308.02563,12.17383,0,18.51465-5.52832,23.60986-9.97021C63.542,354.39893,66.29346,352,72.47168,352s8.92969,2.39893,13.09424,6.02979C90.66064,362.47168,97.00146,368,109.1748,368s18.51416-5.52832,23.60889-9.96973C136.94873,354.39893,139.7002,352,145.87842,352s8.92969,2.39893,13.09472,6.03027C164.06787,362.47168,170.40869,368,182.58252,368c12.17432,0,18.51562-5.52783,23.61035-9.96973C210.3584,354.39893,213.11035,352,219.28906,352c6.1792,0,8.93115,2.39893,13.09668,6.03027C237.481,362.47217,243.82178,368,255.99609,368c12.17286,0,18.51368-5.52832,23.60791-9.97021C283.76855,354.39893,286.52,352,292.69775,352s8.9292,2.39893,13.09375,6.02979C310.88623,362.47168,317.22656,368,329.3999,368c12.17432,0,18.51563-5.52783,23.61035-9.96973C357.17578,354.39893,359.92773,352,366.10693,352s8.93116,2.39893,13.09668,6.03027C384.29883,362.47217,390.63965,368,402.814,368c12.17481,0,18.51612-5.52783,23.61182-9.96973,4.16553-3.63134,6.918-6.03027,13.09766-6.03027,6.1792,0,8.93115,2.39893,13.09668,6.03027a45.2546,45.2546,0,0,0,9.30151,6.70362,103.14059,103.14059,0,0,1-7.50049,22.834A30.79277,30.79277,0,0,0,439.52344,384c-12.17432,0-18.51612,5.52783-23.61133,9.96973C411.74609,397.60107,408.99414,400,402.814,400c-6.17919,0-8.93115-2.39893-13.09667-6.03027C384.62207,389.52783,378.28125,384,366.10693,384s-18.51513,5.52783-23.61035,9.96973C338.33105,397.60107,335.5791,400,329.3999,400c-6.17773,0-8.9292-2.39893-13.09375-6.02979C311.21143,389.52832,304.87109,384,292.69775,384s-18.51416,5.52832-23.60839,9.97021C264.9248,397.60107,262.17334,400,255.99609,400c-6.1792,0-8.93115-2.39893-13.09668-6.03027C237.8042,389.52783,231.46338,384,219.28906,384c-12.17383,0-18.51513,5.52783-23.60986,9.96973C191.51367,397.60107,188.76172,400,182.58252,400c-6.17822,0-8.92969-2.39893-13.09473-6.03027C164.39307,389.52783,158.05225,384,145.87842,384s-18.51465,5.52832-23.60938,9.97021C118.10449,397.60107,115.353,400,109.1748,400s-8.92968-2.39893-13.09423-6.02979C90.98584,389.52783,84.645,384,72.47168,384c-12.17383,0-18.51465,5.52783-23.60938,9.96973C47.9043,394.80493,47.01111,395.57568,46.12561,396.27808ZM352,480H144V464H352Zm8-32H136a103.84256,103.84256,0,0,1-80.75458-38.54578c1.52234-1.1538,2.88025-2.33337,4.131-3.424C63.542,402.39893,66.29346,400,72.47168,400s8.9292,2.39893,13.09424,6.02979C90.66064,410.47217,97.00146,416,109.1748,416s18.51416-5.52783,23.60889-9.96973C136.94873,402.39893,139.7002,400,145.87842,400s8.92969,2.39893,13.09472,6.03027C164.06787,410.47217,170.40869,416,182.58252,416c12.17432,0,18.51562-5.52783,23.61035-9.96973C210.3584,402.39893,213.11035,400,219.28906,400c6.1792,0,8.93115,2.39893,13.09668,6.03027C237.481,410.47217,243.82178,416,255.99609,416c12.17286,0,18.51368-5.52832,23.60791-9.97021C283.76855,402.39893,286.52,400,292.69775,400s8.9292,2.39893,13.09375,6.02979C310.88623,410.47168,317.22656,416,329.3999,416c12.17432,0,18.51514-5.52783,23.61035-9.96973C357.17578,402.39893,359.92773,400,366.10693,400s8.93116,2.39893,13.09668,6.03027C384.29883,410.47217,390.63965,416,402.814,416c12.17481,0,18.51661-5.52783,23.61182-9.96973,4.16553-3.63134,6.918-6.03027,13.09766-6.03027a14.86041,14.86041,0,0,1,7.071,1.52979A103.98323,103.98323,0,0,1,360,448ZM464,344q0,1.34967-.03442,2.69116c-.27393-.23694-.54761-.47412-.8313-.72143C458.03906,341.52783,451.69775,336,439.52344,336s-18.51612,5.52783-23.61133,9.96924C411.74609,349.60107,408.99414,352,402.814,352c-6.17919,0-8.93115-2.39893-13.09667-6.03027C384.62207,341.52783,378.28125,336,366.10693,336s-18.51513,5.52783-23.61035,9.96973C338.33105,349.60107,335.5791,352,329.3999,352c-6.17773,0-8.9292-2.39893-13.09375-6.02979C311.21143,341.52832,304.87109,336,292.69775,336s-18.51416,5.52832-23.60839,9.97021C264.9248,349.60107,262.17334,352,255.99609,352c-6.1792,0-8.93115-2.39893-13.09668-6.03027C237.80469,341.52783,231.46338,336,219.28906,336c-12.17383,0-18.51513,5.52783-23.60986,9.96973C191.51367,349.60107,188.76172,352,182.58252,352c-6.17822,0-8.92969-2.39893-13.09473-6.03027C164.39307,341.52832,158.05225,336,145.87842,336s-18.51465,5.52832-23.60938,9.97021C118.104,349.60107,115.353,352,109.1748,352s-8.92919-2.39893-13.09423-6.02979C90.98584,341.52832,84.645,336,72.47168,336c-12.17383,0-18.51416,5.52783-23.60938,9.96973C44.69727,349.60107,41.9458,352,35.76709,352a18.43771,18.43771,0,0,1-3.48236-.31055Q32.005,347.88013,32,344V320H464ZM304,288a16,16,0,0,1,32,0v16H320A16.01833,16.01833,0,0,1,304,288Zm90.85791-60.04346c9.94043-3.12939,20.17188-6.35058,34.53711-16.17236L461.58691,269.729c-13.09277,9.16065-22.082,11.99073-31.53418,14.96631C419.12988,288.134,407.84644,291.69141,391.10864,304h-9.12671a63.98411,63.98411,0,0,0-17.449-61.90167C376.96826,233.605,385.703,230.83887,394.85791,227.95654ZM368,288a47.74839,47.74839,0,0,1-2.7384,16H352V288a31.99511,31.99511,0,0,0-60.17786-15.15149A20.83118,20.83118,0,0,1,288,259.98828a21.66852,21.66852,0,0,1,1.78357-9.27313A47.99014,47.99014,0,0,1,368,288Zm-80-70.41016c0,7.91944-2.67822,11.46827-6.38525,16.37989C277.33105,239.645,272,246.7085,272,259.98828s5.33105,20.34326,9.61475,26.019C285.32178,290.919,288,294.46777,288,302.3877c0,.5559-.02271,1.08618-.0498,1.6123H263.94641c.01795-.53723.05359-1.061.05359-1.6123,0-13.27979-5.33105-20.34327-9.61426-26.019C250.67822,271.457,248,267.9082,248,259.98828c0-7.91943,2.67822-11.46826,6.38525-16.37988C258.669,237.93311,264,230.86963,264,217.58984c0-13.2788-5.33105-20.3413-9.61475-26.0166-3.707-4.91064-6.38525-8.459-6.38525-16.37695,0-.08521.0047-.16284.00531-.24707A64.31208,64.31208,0,0,0,284.273,204.87494,20.86768,20.86768,0,0,1,288,217.58984ZM352,144a47.887,47.887,0,0,1-16.25366,35.95831A32.11877,32.11877,0,0,0,336,176V144a32,32,0,1,0-32,32V160a16,16,0,1,1,16-16v32a16.01833,16.01833,0,0,1-16,16,48,48,0,1,1,48-48ZM281.61475,64.37988c-4.08277,5.40955-9.10572,12.09247-9.5691,24.204a64.46633,64.46633,0,0,0-18.86877,16.58142C250.11133,101.01422,248,97.4267,248,90.39893c0-7.91944,2.67822-11.46875,6.38574-16.38038A52.32187,52.32187,0,0,0,260.74036,64h21.15979C281.804,64.12769,281.71265,64.25024,281.61475,64.37988ZM121.90057,64c-.09637.12787-.18786.25055-.28582.38037-2.998,3.97192-6.50245,8.63275-8.34,15.61963H96V64Z"/></g></svg>
