<?xml version="1.0" encoding="iso-8859-1"?>
<!-- Generator: Adobe Illustrator 16.0.0, SVG Export Plug-In . SVG Version: 6.00 Build 0)  -->
<!DOCTYPE svg PUBLIC "-//W3C//DTD SVG 1.1//EN" "http://www.w3.org/Graphics/SVG/1.1/DTD/svg11.dtd">
<svg version="1.1" id="Capa_1" xmlns="http://www.w3.org/2000/svg" xmlns:xlink="http://www.w3.org/1999/xlink" x="0px" y="0px"
	 width="612px" height="612px" viewBox="0 0 612 612" style="enable-background:new 0 0 612 612;" xml:space="preserve">
<g>
	<g id="_x37__9_">
		<g>
			<path d="M191.25,325.125H46.455l5.47,76.5H191.25V325.125z M420.75,516.375H382.5v-76.5h-153v76.5h-38.25v-76.5H54.64
				l2.735,38.25c0,42.247,34.253,76.5,76.5,76.5H459c42.247,0,76.5-34.253,76.5-76.5l5.47-38.25H420.75V516.375z M420.75,401.625
				h125.67l10.921-76.5H420.75V401.625z M382.5,325.125h-153v76.5h153V325.125z M592.875,172.125H468.046l38.767-76.5h47.812
				c10.557,0,19.125-8.568,19.125-19.125s-8.568-19.125-19.125-19.125h-76.5l-58.981,114.75H194.463l-60.588-114.75h-76.5
				c-10.557,0-19.125,8.568-19.125,19.125s8.568,19.125,19.125,19.125h47.812l41.042,76.5H19.125C8.568,172.125,0,180.693,0,191.25
				s8.568,19.125,19.125,19.125H38.25l5.47,76.5h147.53v-76.5h38.25v76.5h153v-76.5h38.25v76.5h142.08l10.92-76.5h19.125
				c10.557,0,19.125-8.568,19.125-19.125S603.432,172.125,592.875,172.125z"/>
		</g>
	</g>
</g>
<g>
</g>
<g>
</g>
<g>
</g>
<g>
</g>
<g>
</g>
<g>
</g>
<g>
</g>
<g>
</g>
<g>
</g>
<g>
</g>
<g>
</g>
<g>
</g>
<g>
</g>
<g>
</g>
<g>
</g>
</svg>
