<svg id="Capa_1" enable-background="new 0 0 510 510" height="512" viewBox="0 0 510 510" width="512" xmlns="http://www.w3.org/2000/svg" xmlns:xlink="http://www.w3.org/1999/xlink"><linearGradient id="lg1"><stop offset="0" stop-color="#f8f6fb"/><stop offset="1" stop-color="#efdcfb"/></linearGradient><linearGradient id="SVGID_1_" gradientUnits="userSpaceOnUse" x1="230.848" x2="246.45" xlink:href="#lg1" y1="127.353" y2="204.581"/><linearGradient id="lg2"><stop offset="0" stop-color="#efdcfb" stop-opacity="0"/><stop offset=".0287" stop-color="#e9d6f7" stop-opacity=".029"/><stop offset=".2203" stop-color="#c5b5de" stop-opacity=".22"/><stop offset=".4138" stop-color="#aa9bcb" stop-opacity=".414"/><stop offset=".6078" stop-color="#9688bd" stop-opacity=".608"/><stop offset=".8028" stop-color="#8a7db5" stop-opacity=".803"/><stop offset="1" stop-color="#8679b2"/></linearGradient><linearGradient id="SVGID_2_" gradientUnits="userSpaceOnUse" x1="235.099" x2="224.958" xlink:href="#lg2" y1="175.923" y2="40.969"/><linearGradient id="SVGID_3_" gradientUnits="userSpaceOnUse" x1="230.65" x2="230.65" xlink:href="#lg2" y1="176.562" y2="246.839"/><radialGradient id="SVGID_4_" cx="301.823" cy="196.889" gradientTransform="matrix(.878 0 0 -.476 -33.687 261.999)" gradientUnits="userSpaceOnUse" r="253.099"><stop offset="0" stop-color="#ff6359"/><stop offset=".2327" stop-color="#ff6855"/><stop offset=".5016" stop-color="#ff764a"/><stop offset=".7872" stop-color="#ff8d37"/><stop offset="1" stop-color="#ffa325"/></radialGradient><linearGradient id="lg3"><stop offset="0" stop-color="#ffa325" stop-opacity="0"/><stop offset=".196" stop-color="#ffae38" stop-opacity=".196"/><stop offset=".5939" stop-color="#ffca6a" stop-opacity=".594"/><stop offset="1" stop-color="#ffeaa2"/></linearGradient><linearGradient id="SVGID_5_" gradientUnits="userSpaceOnUse" x1="222.177" x2="162.5" xlink:href="#lg3" y1="70.012" y2="-25.353"/><linearGradient id="SVGID_6_" gradientUnits="userSpaceOnUse" x1="250.975" x2="210.153" xlink:href="#lg3" y1="54.026" y2="-10.269"/><linearGradient id="SVGID_7_" gradientUnits="userSpaceOnUse" x1="295.644" x2="251.763" xlink:href="#lg3" y1="59.823" y2="-9.291"/><linearGradient id="SVGID_8_" gradientUnits="userSpaceOnUse" x1="337.274" x2="300.109" xlink:href="#lg3" y1="72.979" y2="14.444"/><linearGradient id="SVGID_9_" gradientTransform="matrix(-.844 .536 .536 .844 -296.366 2876.759)" gradientUnits="userSpaceOnUse" x1="-1891.45" x2="-1873.582" xlink:href="#lg2" y1="-2018.507" y2="-1993.737"/><linearGradient id="SVGID_10_" gradientTransform="matrix(-.844 .536 .536 .844 -296.366 2876.759)" gradientUnits="userSpaceOnUse" x1="-1879.196" x2="-1865.091" xlink:href="#lg2" y1="-2034.151" y2="-2014.596"/><linearGradient id="SVGID_11_" gradientTransform="matrix(-.844 .536 .536 .844 -296.366 2876.759)" gradientUnits="userSpaceOnUse" x1="-1899.801" x2="-1891.297" xlink:href="#lg2" y1="-2034.698" y2="-2022.909"/><linearGradient id="SVGID_12_" gradientTransform="matrix(-.163 .987 .987 .163 609.563 2886.607)" gradientUnits="userSpaceOnUse" x1="-2646.967" x2="-2633.764" xlink:href="#lg2" y1="-812.766" y2="-794.462"/><linearGradient id="SVGID_13_" gradientTransform="matrix(-.163 .987 .987 .163 609.563 2886.607)" gradientUnits="userSpaceOnUse" x1="-2637.912" x2="-2627.489" xlink:href="#lg2" y1="-824.325" y2="-809.875"/><linearGradient id="SVGID_14_" gradientTransform="matrix(-.163 .987 .987 .163 609.563 2886.607)" gradientUnits="userSpaceOnUse" x1="-2653.138" x2="-2646.854" xlink:href="#lg2" y1="-824.729" y2="-816.018"/><linearGradient id="SVGID_15_" gradientUnits="userSpaceOnUse" x1="324.927" x2="340.529" xlink:href="#lg1" y1="275.488" y2="352.716"/><linearGradient id="SVGID_16_" gradientUnits="userSpaceOnUse" x1="329.179" x2="319.038" xlink:href="#lg2" y1="324.058" y2="189.104"/><linearGradient id="SVGID_17_" gradientUnits="userSpaceOnUse" x1="361.783" x2="334.436" xlink:href="#lg2" y1="265.674" y2="265.674"/><linearGradient id="SVGID_18_" gradientUnits="userSpaceOnUse" x1="324.73" x2="324.73" xlink:href="#lg2" y1="324.697" y2="394.974"/><radialGradient id="SVGID_19_" cx="408.928" cy="50.509" gradientTransform="matrix(.878 0 0 -.476 -33.687 338.767)" gradientUnits="userSpaceOnUse" r="253.099"><stop offset="0" stop-color="#ffb800"/><stop offset=".2231" stop-color="#ffba05"/><stop offset=".4808" stop-color="#ffc113"/><stop offset=".7546" stop-color="#ffcc2a"/><stop offset="1" stop-color="#ffd945"/></radialGradient><linearGradient id="SVGID_20_" gradientTransform="matrix(-.406 -.914 .914 -.406 1663.542 -2446.219)" gradientUnits="userSpaceOnUse" x1="-2014.634" x2="-1996.767" xlink:href="#lg2" y1="-2247.465" y2="-2222.694"/><linearGradient id="SVGID_21_" gradientTransform="matrix(-.406 -.914 .914 -.406 1663.542 -2446.219)" gradientUnits="userSpaceOnUse" x1="-2002.381" x2="-1988.276" xlink:href="#lg2" y1="-2263.108" y2="-2243.553"/><linearGradient id="SVGID_22_" gradientTransform="matrix(-.406 -.914 .914 -.406 1663.542 -2446.219)" gradientUnits="userSpaceOnUse" x1="-2022.986" x2="-2014.482" xlink:href="#lg2" y1="-2263.655" y2="-2251.866"/><linearGradient id="SVGID_23_" gradientTransform="matrix(.411 -.912 .912 .411 2423.22 -1952.566)" gradientUnits="userSpaceOnUse" x1="-2899.739" x2="-2886.536" xlink:href="#lg2" y1="-873.61" y2="-855.306"/><linearGradient id="SVGID_24_" gradientTransform="matrix(.411 -.912 .912 .411 2423.22 -1952.566)" gradientUnits="userSpaceOnUse" x1="-2890.685" x2="-2880.262" xlink:href="#lg2" y1="-885.169" y2="-870.719"/><linearGradient id="SVGID_25_" gradientTransform="matrix(.411 -.912 .912 .411 2423.22 -1952.566)" gradientUnits="userSpaceOnUse" x1="-2905.91" x2="-2899.626" xlink:href="#lg2" y1="-885.574" y2="-876.862"/><linearGradient id="SVGID_26_" gradientUnits="userSpaceOnUse" x1="359.833" x2="318.487" y1="227.795" y2="227.795"><stop offset="0" stop-color="#f82814" stop-opacity="0"/><stop offset="1" stop-color="#c0272d"/></linearGradient><linearGradient id="SVGID_27_" gradientUnits="userSpaceOnUse" x1="301.832" x2="355.658" y1="237.637" y2="290.683"><stop offset="0" stop-color="#464f00"/><stop offset=".2883" stop-color="#454518"/><stop offset=".7468" stop-color="#443738"/><stop offset="1" stop-color="#433244"/></linearGradient><linearGradient id="SVGID_28_" gradientUnits="userSpaceOnUse" x1="185.467" x2="201.069" xlink:href="#lg1" y1="413.884" y2="491.112"/><linearGradient id="SVGID_29_" gradientUnits="userSpaceOnUse" x1="189.719" x2="179.578" xlink:href="#lg2" y1="462.454" y2="327.499"/><linearGradient id="SVGID_30_" gradientUnits="userSpaceOnUse" x1="185.27" x2="185.27" xlink:href="#lg2" y1="463.092" y2="533.369"/><radialGradient id="SVGID_31_" cx="250.16" cy="-117.725" gradientTransform="matrix(.878 0 0 -.476 -33.687 426.996)" gradientUnits="userSpaceOnUse" r="253.099"><stop offset="0" stop-color="#f82814"/><stop offset=".4249" stop-color="#f82a16"/><stop offset=".614" stop-color="#f9301d"/><stop offset=".7563" stop-color="#fa3b2a"/><stop offset=".8752" stop-color="#fc4a3c"/><stop offset=".9784" stop-color="#fe5e53"/><stop offset="1" stop-color="#ff6359"/></radialGradient><linearGradient id="lg4"><stop offset="0" stop-color="#f82814" stop-opacity="0"/><stop offset=".1947" stop-color="#f83b26" stop-opacity=".195"/><stop offset=".5899" stop-color="#f96d56" stop-opacity=".59"/><stop offset="1" stop-color="#faa68e"/></linearGradient><linearGradient id="SVGID_32_" gradientUnits="userSpaceOnUse" x1="173.152" x2="126.923" xlink:href="#lg4" y1="351.258" y2="278.449"/><linearGradient id="SVGID_33_" gradientUnits="userSpaceOnUse" x1="211.007" x2="170.185" xlink:href="#lg4" y1="349.082" y2="284.787"/><linearGradient id="SVGID_34_" gradientUnits="userSpaceOnUse" x1="252.189" x2="217.909" xlink:href="#lg4" y1="349.385" y2="295.395"/><linearGradient id="SVGID_35_" gradientUnits="userSpaceOnUse" x1="291.893" x2="266.355" xlink:href="#lg4" y1="359.51" y2="319.287"/><linearGradient id="SVGID_36_" gradientTransform="matrix(-.914 .406 -.406 -.914 -2332.361 -923.493)" gradientUnits="userSpaceOnUse" x1="-1639.578" x2="-1621.71" xlink:href="#lg2" y1="-2230.496" y2="-2205.725"/><linearGradient id="SVGID_37_" gradientTransform="matrix(-.914 .406 -.406 -.914 -2332.361 -923.493)" gradientUnits="userSpaceOnUse" x1="-1627.324" x2="-1613.219" xlink:href="#lg2" y1="-2246.139" y2="-2226.584"/><linearGradient id="SVGID_38_" gradientTransform="matrix(-.914 .406 -.406 -.914 -2332.361 -923.493)" gradientUnits="userSpaceOnUse" x1="-1647.929" x2="-1639.425" xlink:href="#lg2" y1="-2246.686" y2="-2234.897"/><linearGradient id="SVGID_39_" gradientTransform="matrix(-.912 -.411 .411 -.912 -1838.707 -1683.171)" gradientUnits="userSpaceOnUse" x1="-2637.029" x2="-2623.826" xlink:href="#lg2" y1="-1141.824" y2="-1123.521"/><linearGradient id="SVGID_40_" gradientTransform="matrix(-.912 -.411 .411 -.912 -1838.707 -1683.171)" gradientUnits="userSpaceOnUse" x1="-2627.974" x2="-2617.552" xlink:href="#lg2" y1="-1153.384" y2="-1138.934"/><linearGradient id="SVGID_41_" gradientTransform="matrix(-.912 -.411 .411 -.912 -1838.707 -1683.171)" gradientUnits="userSpaceOnUse" x1="-2643.2" x2="-2636.916" xlink:href="#lg2" y1="-1153.788" y2="-1145.076"/><g><g><path d="m355.061 203.956c25.829-1.42 46.295-22.354 47.047-48.211.363-12.494.551-25.246.551-38.202 0-5.161-.03-10.289-.089-15.381-.449-38.837-31.291-70.459-70.094-72.138-31.608-1.368-65.938-2.117-101.826-2.117s-70.218.75-101.826 2.117c-38.803 1.679-69.646 33.302-70.094 72.138-.059 5.093-.089 10.221-.089 15.381 0 12.956.188 25.707.551 38.202.752 25.857 21.218 46.792 47.047 48.211 37.569 2.065 79.785 3.224 124.411 3.224s86.842-1.159 124.411-3.224z" fill="url(#SVGID_1_)"/><path d="m402.659 117.544c0 12.953-.187 25.708-.55 38.205-.749 25.848-21.214 46.782-47.051 48.209-37.561 2.059-79.779 3.218-124.408 3.218-35.221 0-68.932-.725-100.046-2.036l-71.869-71.869c-.059-5.207-.094-10.449-.094-15.726 0-5.16.035-10.285.094-15.387.445-38.836 31.289-70.453 70.09-72.138 31.605-1.369 65.937-2.118 101.824-2.118s70.219.749 101.824 2.118c38.801 1.685 69.646 33.302 70.09 72.138.061 5.101.096 10.226.096 15.386z" fill="url(#SVGID_2_)"/><path d="m59.304 157.84c1.764 24.883 21.809 44.735 46.935 46.116 37.569 2.065 79.785 3.224 124.411 3.224s86.842-1.159 124.411-3.224c25.127-1.381 45.172-21.233 46.935-46.116z" fill="url(#SVGID_3_)"/><path d="m375.066 141.37c-38.603-14.552-89.121-23.369-144.416-23.369s-105.812 8.817-144.416 23.369c-20.737 7.817-40.854-15.617-40.854-47.476 0-21.275 9.213-40.16 22.825-46.612 40.163-19.04 98.067-30.992 162.445-30.992 64.379 0 122.283 11.952 162.445 30.992 13.612 6.453 22.824 25.337 22.824 46.612.001 31.859-20.116 55.293-40.853 47.476z" fill="url(#SVGID_4_)"/><path d="m415.917 93.896c0 27.673-15.177 48.981-32.752 48.981-2.656 0-5.371-.48-8.097-1.509-15.013-5.652-31.839-10.449-50.035-14.182-28.586-5.886-60.601-9.185-94.382-9.185-55.288 0-105.814 8.823-144.417 23.367-3.159 1.193-6.307 1.662-9.361 1.474-2-32.07 10.483-67.343 35.398-96.988 10.525-12.523 25.154-20.956 41.304-23.566 23.977-3.876 49.955-5.995 77.076-5.995 31.195 0 60.87 2.797 87.736 7.875 28.586 5.371 54.001 13.293 74.713 23.11 13.607 6.46 22.817 25.345 22.817 46.618z" fill="url(#SVGID_5_)"/><path d="m393.096 47.282c-40.163-19.04-98.067-30.992-162.446-30.992-4.557 0-9.081.06-13.568.179-14.207.375-27.728 6.63-36.915 17.472-.06.071-.12.141-.179.212-23.487 27.946-35.92 60.891-35.594 91.441 26.48-4.885 55.633-7.594 86.256-7.594 55.294 0 105.812 8.817 144.416 23.369 20.737 7.817 40.854-15.617 40.854-47.476 0-21.274-9.213-40.158-22.824-46.611z" fill="url(#SVGID_6_)"/><path d="m393.096 47.282c-32.087-15.211-75.502-25.893-124.492-29.575-4.355-.327-8.677 1.35-11.491 4.691-.015.018-.031.036-.046.055-24.565 29.229-37.035 63.926-35.463 95.632 3.001-.052 6.015-.084 9.046-.084 55.294 0 105.812 8.817 144.416 23.369 20.737 7.817 40.854-15.617 40.854-47.476 0-21.275-9.213-40.159-22.824-46.612z" fill="url(#SVGID_7_)"/><path d="m393.096 47.282c-16.47-7.808-35.928-14.42-57.589-19.508-3.495-.821-7.202.32-9.514 3.066-.013.015-.026.03-.038.046-23.286 27.707-35.709 60.329-35.602 90.659 31.737 3.86 60.557 10.719 84.713 19.825 20.737 7.817 40.854-15.617 40.854-47.476 0-21.275-9.213-40.159-22.824-46.612z" fill="url(#SVGID_8_)"/><g><g opacity=".6"><g><circle cx="217.309" cy="168.57" fill="url(#SVGID_9_)" r="6.453"/><circle cx="198.7" cy="159.871" fill="url(#SVGID_10_)" r="5.094"/><circle cx="215.981" cy="145.287" fill="url(#SVGID_11_)" r="3.071"/></g><g><circle cx="244.695" cy="147.648" fill="url(#SVGID_12_)" r="4.768"/><circle cx="230.736" cy="153.611" fill="url(#SVGID_13_)" r="3.764"/><circle cx="231.218" cy="136.909" fill="url(#SVGID_14_)" r="2.269"/></g></g></g></g><g><path d="m449.141 352.091c25.829-1.42 46.295-22.355 47.047-48.211.363-12.494.551-25.246.551-38.202 0-5.161-.03-10.289-.089-15.381-.449-38.837-31.291-70.46-70.094-72.138-31.608-1.368-65.938-2.117-101.826-2.117s-70.218.75-101.826 2.117c-38.803 1.679-69.646 33.302-70.094 72.138-.059 5.093-.089 10.221-.089 15.381 0 12.956.188 25.707.551 38.202.752 25.857 21.218 46.792 47.047 48.211 37.569 2.065 79.785 3.224 124.411 3.224s86.842-1.159 124.411-3.224z" fill="url(#SVGID_15_)"/><path d="m496.738 265.68c0 12.953-.187 25.708-.55 38.205-.749 25.848-21.214 46.782-47.051 48.209-37.561 2.059-79.779 3.218-124.408 3.218-35.221 0-68.932-.725-100.046-2.036l-71.869-71.869c-.059-5.207-.094-10.449-.094-15.727 0-5.16.035-10.285.094-15.387.445-38.836 31.289-70.453 70.09-72.138 31.605-1.369 65.937-2.118 101.824-2.118s70.219.749 101.824 2.118c38.801 1.685 69.646 33.302 70.09 72.138.061 5.101.096 10.226.096 15.387z" fill="url(#SVGID_16_)"/><path d="m426.554 178.154c-28.005-1.213-58.158-1.936-89.63-2.086v179.211c40.122-.191 78.093-1.315 112.214-3.186 25.836-1.428 46.302-22.361 47.051-48.209.363-12.497.55-25.251.55-38.205 0-5.16-.035-10.285-.094-15.387-.445-38.836-31.289-70.453-70.091-72.138z" fill="url(#SVGID_17_)"/><path d="m153.384 305.975c1.764 24.883 21.809 44.735 46.935 46.116 37.569 2.065 79.785 3.224 124.411 3.224s86.842-1.159 124.411-3.224c25.127-1.381 45.172-21.233 46.935-46.116z" fill="url(#SVGID_18_)"/><path d="m469.146 289.505c-38.603-14.552-89.121-23.369-144.416-23.369s-105.812 8.817-144.416 23.369c-20.737 7.817-40.854-15.617-40.854-47.476 0-21.275 9.213-40.16 22.825-46.612 40.163-19.04 98.067-30.992 162.445-30.992 64.379 0 122.283 11.952 162.445 30.992 13.612 6.453 22.825 25.337 22.825 46.612 0 31.859-20.118 55.293-40.854 47.476z" fill="url(#SVGID_19_)"/><g><g opacity=".6"><g><circle cx="431.667" cy="298.497" fill="url(#SVGID_20_)" r="6.453"/><circle cx="411.356" cy="295.43" fill="url(#SVGID_21_)" r="5.094"/><circle cx="417.663" cy="317.145" fill="url(#SVGID_22_)" r="3.071"/></g><g><circle cx="442.877" cy="331.086" fill="url(#SVGID_23_)" r="4.768"/><circle cx="434.559" cy="318.389" fill="url(#SVGID_24_)" r="3.764"/><circle cx="425.708" cy="332.561" fill="url(#SVGID_25_)" r="2.269"/></g></g></g><path d="m487.175 195.417c-37.61-17.83-90.778-29.443-150.252-30.847v101.716c50.51 1.193 96.476 9.745 132.222 23.22 20.737 7.816 40.855-15.618 40.855-47.477 0-21.275-9.213-40.159-22.825-46.612z" fill="url(#SVGID_26_)"/><path d="m305.396 354.207c0 2.394 1.928 4.342 4.322 4.357 4.971.031 9.974.048 15.012.048s10.041-.017 15.012-.048c2.394-.015 4.322-1.963 4.322-4.357v-187.652c0-2.832-2.258-5.137-5.089-5.219-4.71-.136-9.459-.208-14.246-.208s-9.536.072-14.246.208c-2.831.082-5.089 2.387-5.089 5.219v187.652z" fill="url(#SVGID_27_)"/></g><g><path d="m309.681 490.486c25.829-1.42 46.295-22.354 47.047-48.211.363-12.494.551-25.246.551-38.202 0-5.161-.03-10.289-.089-15.381-.449-38.837-31.291-70.46-70.094-72.138-31.608-1.368-65.938-2.117-101.826-2.117s-70.218.75-101.826 2.117c-38.803 1.679-69.646 33.302-70.094 72.138-.059 5.093-.089 10.221-.089 15.381 0 12.956.188 25.707.551 38.202.752 25.857 21.218 46.792 47.047 48.211 37.569 2.065 79.785 3.224 124.411 3.224s86.842-1.159 124.411-3.224z" fill="url(#SVGID_28_)"/><path d="m357.278 404.075c0 12.953-.187 25.708-.55 38.205-.749 25.848-21.214 46.782-47.051 48.209-37.561 2.059-79.779 3.218-124.408 3.218-35.221 0-68.932-.725-100.046-2.036l-71.869-71.869c-.059-5.207-.094-10.449-.094-15.726 0-5.16.035-10.285.094-15.387.445-38.836 31.289-70.453 70.09-72.138 31.605-1.369 65.937-2.118 101.824-2.118s70.219.749 101.824 2.118c38.801 1.685 69.646 33.302 70.09 72.138.061 5.101.096 10.226.096 15.386z" fill="url(#SVGID_29_)"/><path d="m13.924 444.37c1.764 24.883 21.809 44.735 46.935 46.116 37.569 2.065 79.785 3.224 124.411 3.224s86.842-1.159 124.411-3.224c25.127-1.381 45.172-21.233 46.935-46.116z" fill="url(#SVGID_30_)"/><path d="m329.685 427.9c-38.603-14.552-89.121-23.369-144.416-23.369s-105.812 8.817-144.415 23.369c-20.736 7.817-40.854-15.616-40.854-47.475 0-21.275 9.213-40.16 22.825-46.612 40.163-19.04 98.067-30.992 162.445-30.992 64.379 0 122.283 11.952 162.445 30.992 13.612 6.453 22.824 25.337 22.824 46.612.001 31.859-20.117 55.292-40.854 47.475z" fill="url(#SVGID_31_)"/><path d="m370.536 380.427c0 27.673-15.177 48.981-32.752 48.981-2.656 0-5.371-.48-8.097-1.509-15.013-5.652-31.839-10.449-50.035-14.182-28.586-5.886-60.601-9.185-94.382-9.185-55.288 0-105.814 8.823-144.417 23.367-3.159 1.193-6.307 1.662-9.361 1.474-2-32.07 10.483-67.343 35.398-96.988 10.525-12.523 25.154-20.956 41.304-23.566 23.977-3.876 49.955-5.995 77.076-5.995 31.195 0 60.87 2.797 87.736 7.875 28.586 5.371 54.001 13.293 74.713 23.11 13.608 6.459 22.817 25.345 22.817 46.618z" fill="url(#SVGID_32_)"/><path d="m347.715 333.812c-40.163-19.04-98.067-30.992-162.445-30.992-4.557 0-9.081.06-13.568.179-14.207.375-27.728 6.63-36.915 17.472-.06.071-.12.141-.179.212-23.487 27.946-35.92 60.891-35.594 91.441 26.48-4.885 55.633-7.594 86.256-7.594 55.294 0 105.812 8.817 144.416 23.369 20.737 7.817 40.854-15.617 40.854-47.476 0-21.274-9.213-40.158-22.825-46.611z" fill="url(#SVGID_33_)"/><path d="m347.715 333.812c-32.087-15.211-75.502-25.893-124.492-29.575-4.355-.327-8.677 1.35-11.491 4.691-.015.018-.031.036-.046.055-24.565 29.229-37.035 63.926-35.463 95.632 3.001-.052 6.015-.084 9.046-.084 55.294 0 105.812 8.817 144.416 23.369 20.737 7.817 40.854-15.617 40.854-47.476.001-21.275-9.212-40.159-22.824-46.612z" fill="url(#SVGID_34_)"/><path d="m347.715 333.812c-16.47-7.808-35.928-14.42-57.589-19.508-3.495-.821-7.202.32-9.514 3.066-.013.015-.026.03-.038.046-23.286 27.707-35.709 60.329-35.602 90.659 31.737 3.86 60.557 10.719 84.713 19.825 20.737 7.817 40.854-15.617 40.854-47.476.001-21.275-9.212-40.159-22.824-46.612z" fill="url(#SVGID_35_)"/><g><g opacity=".6"><g><circle cx="62.668" cy="445.036" fill="url(#SVGID_36_)" r="6.453"/><circle cx="59.602" cy="465.348" fill="url(#SVGID_37_)" r="5.094"/><circle cx="81.316" cy="459.04" fill="url(#SVGID_38_)" r="3.071"/></g><g><circle cx="95.257" cy="433.826" fill="url(#SVGID_39_)" r="4.768"/><circle cx="82.56" cy="442.144" fill="url(#SVGID_40_)" r="3.764"/><circle cx="96.732" cy="450.996" fill="url(#SVGID_41_)" r="2.269"/></g></g></g></g></g></svg>